<svg xmlns="http://www.w3.org/2000/svg" viewBox="0 0 512 512" width="512" height="512">
  <defs>
    <!-- Vibrant, Glowing Liquid Cyan-Blue Gradient -->
    <linearGradient id="iconBg" x1="0%" y1="0%" x2="100%" y2="100%">
      <stop offset="0%" stop-color="#38bdf8"/>
      <stop offset="30%" stop-color="#0284c7"/>
      <stop offset="70%" stop-color="#0066cc"/>
      <stop offset="100%" stop-color="#0f172a"/>
    </linearGradient>

    <!-- Top Radiant Light Aura -->
    <radialGradient id="topGlow" cx="45%" cy="25%" r="75%">
      <stop offset="0%" stop-color="#ffffff" stop-opacity="0.45"/>
      <stop offset="45%" stop-color="#38bdf8" stop-opacity="0.25"/>
      <stop offset="100%" stop-color="#000000" stop-opacity="0"/>
    </radialGradient>

    <!-- Specular Highlight Arc -->
    <linearGradient id="glassSheen" x1="0%" y1="0%" x2="0%" y2="100%">
      <stop offset="0%" stop-color="#ffffff" stop-opacity="0.5"/>
      <stop offset="35%" stop-color="#ffffff" stop-opacity="0.15"/>
      <stop offset="100%" stop-color="#ffffff" stop-opacity="0"/>
    </linearGradient>

    <!-- Metallic Platinum / Ice Gradient for Emblem -->
    <linearGradient id="platGrad" x1="0%" y1="0%" x2="100%" y2="100%">
      <stop offset="0%" stop-color="#ffffff"/>
      <stop offset="50%" stop-color="#f0f9ff"/>
      <stop offset="100%" stop-color="#bae6fd"/>
    </linearGradient>

    <!-- Facet Shadow Gradient -->
    <linearGradient id="facetDark" x1="0%" y1="0%" x2="100%" y2="100%">
      <stop offset="0%" stop-color="#60a5fa"/>
      <stop offset="100%" stop-color="#1d4ed8"/>
    </linearGradient>

    <!-- Golden Spark Accent -->
    <linearGradient id="goldAccent" x1="0%" y1="0%" x2="100%" y2="100%">
      <stop offset="0%" stop-color="#fef08a"/>
      <stop offset="100%" stop-color="#f59e0b"/>
    </linearGradient>

    <!-- Soft Depth Shadow -->
    <filter id="iconDepth" x="-20%" y="-20%" width="140%" height="140%">
      <feDropShadow dx="0" dy="12" stdDeviation="14" flood-color="#020617" flood-opacity="0.5"/>
    </filter>
  </defs>

  <!-- iOS Apple Squircle Base -->
  <rect width="512" height="512" rx="115" fill="url(#iconBg)"/>
  <rect width="512" height="512" rx="115" fill="url(#topGlow)"/>

  <!-- Top Glass Reflection Arc -->
  <path d="M 0 115 C 0 51.5 51.5 0 115 0 L 397 0 C 460.5 0 512 51.5 512 115 C 512 175 390 205 256 205 C 122 205 0 175 0 115 Z" fill="url(#glassSheen)"/>

  <!-- Outer Specular Glass Rim -->
  <rect x="2.5" y="2.5" width="507" height="507" rx="112.5" fill="none" stroke="rgba(255,255,255,0.4)" stroke-width="3"/>
  <rect x="6.5" y="6.5" width="499" height="499" rx="108.5" fill="none" stroke="rgba(255,255,255,0.1)" stroke-width="1.5"/>

  <!-- Minimalist High-End Geometric Emblem (The Crown of Knowledge / Prism AQ) -->
  <g filter="url(#iconDepth)">
    <!-- Central Modern Apex (Stylized Diamond Mortarboard & Rising Peak) -->
    <!-- Center Peak -->
    <polygon points="256,92 376,174 256,238 136,174" fill="url(#platGrad)" />
    <!-- Left Facet -->
    <polygon points="136,174 256,238 256,320 136,256" fill="url(#facetDark)" opacity="0.9" />
    <!-- Right Facet -->
    <polygon points="376,174 256,238 256,320 376,256" fill="#38bdf8" opacity="0.95" />
    <!-- Central Vertical Accent Blade -->
    <line x1="256" y1="92" x2="256" y2="320" stroke="#ffffff" stroke-width="3" stroke-linecap="round" />

    <!-- Modern Ribbon Wings uniting the base (Representing Open Book & Infinite Progress) -->
    <path d="M 120 310 C 170 330 220 335 256 335 C 292 335 342 330 392 310 C 372 355 320 375 256 375 C 192 375 140 355 120 310 Z" fill="url(#platGrad)"/>

    <!-- Subtle Golden Star Sparkle at Top Peak -->
    <circle cx="256" cy="92" r="7" fill="url(#goldAccent)"/>

    <!-- CLEAN, MODERN BRAND TEXT: ĐBAQ - LMS -->
    <!-- Pill Background for Text -->
    <rect x="106" y="415" width="300" height="52" rx="26" fill="rgba(2, 6, 23, 0.45)" stroke="rgba(255, 255, 255, 0.25)" stroke-width="1.5"/>
    <text x="256" y="451" text-anchor="middle" font-family="'Segoe UI', Arial, sans-serif" font-size="25" font-weight="800" letter-spacing="4" fill="#ffffff">ĐBAQ - LMS</text>
  </g>
</svg>