<svg xmlns="http://www.w3.org/2000/svg" viewBox="0 0 1200 630" width="1200" height="630">
  <defs>
    <!-- Deep Midnight Luxury Background -->
    <linearGradient id="ogBgGrad" x1="0%" y1="0%" x2="100%" y2="100%">
      <stop offset="0%" stop-color="#0a1329"/>
      <stop offset="45%" stop-color="#071838"/>
      <stop offset="85%" stop-color="#030b1c"/>
      <stop offset="100%" stop-color="#020617"/>
    </linearGradient>

    <!-- Central Majestic Blue Aura Glow -->
    <radialGradient id="centerAura" cx="50%" cy="45%" r="60%">
      <stop offset="0%" stop-color="#0284c7" stop-opacity="0.45"/>
      <stop offset="35%" stop-color="#0066cc" stop-opacity="0.25"/>
      <stop offset="70%" stop-color="#1e1b4b" stop-opacity="0.1"/>
      <stop offset="100%" stop-color="#000000" stop-opacity="0"/>
    </radialGradient>

    <!-- Mini Icon Background -->
    <linearGradient id="miniIconBg" x1="0%" y1="0%" x2="100%" y2="100%">
      <stop offset="0%" stop-color="#38bdf8"/>
      <stop offset="30%" stop-color="#0284c7"/>
      <stop offset="70%" stop-color="#0066cc"/>
      <stop offset="100%" stop-color="#0f172a"/>
    </linearGradient>

    <!-- Metallic Text Gradient for ĐBAQ -->
    <linearGradient id="titleMetal" x1="0%" y1="0%" x2="100%" y2="0%">
      <stop offset="0%" stop-color="#ffffff"/>
      <stop offset="50%" stop-color="#f0f9ff"/>
      <stop offset="100%" stop-color="#bae6fd"/>
    </linearGradient>

    <linearGradient id="emblemMini" x1="0%" y1="0%" x2="100%" y2="100%">
      <stop offset="0%" stop-color="#ffffff"/>
      <stop offset="100%" stop-color="#bae6fd"/>
    </linearGradient>

    <linearGradient id="goldStar" x1="0%" y1="0%" x2="100%" y2="100%">
      <stop offset="0%" stop-color="#fef08a"/>
      <stop offset="100%" stop-color="#f59e0b"/>
    </linearGradient>

    <!-- Soft Depth Shadow -->
    <filter id="cardShadow" x="-20%" y="-20%" width="140%" height="140%">
      <feDropShadow dx="0" dy="16" stdDeviation="22" flood-color="#000000" flood-opacity="0.65"/>
    </filter>
    <filter id="iconGlow" x="-30%" y="-30%" width="160%" height="160%">
      <feDropShadow dx="0" dy="0" stdDeviation="18" flood-color="#0284c7" flood-opacity="0.55"/>
    </filter>
  </defs>

  <!-- 1. Background -->
  <rect width="1200" height="630" fill="url(#ogBgGrad)"/>
  <rect width="1200" height="630" fill="url(#centerAura)"/>

  <!-- 2. Subtle Outer Apple Glass Border -->
  <rect x="20" y="20" width="1160" height="590" rx="36" fill="none" stroke="rgba(255,255,255,0.12)" stroke-width="2"/>
  <rect x="24" y="24" width="1152" height="582" rx="32" fill="none" stroke="rgba(56,189,248,0.1)" stroke-width="1"/>

  <!-- 3. CENTERED LUXURY BRAND COMPOSITION -->
  <g transform="translate(600, 75)" text-anchor="middle">
    
    <!-- A. Centered Brand App Icon with Mortarboard + Pen (124x124) -->
    <g transform="translate(-62, 0)" filter="url(#iconGlow)">
      <!-- Squircle Base -->
      <rect width="124" height="124" rx="32" fill="url(#miniIconBg)"/>
      <rect width="124" height="124" rx="32" fill="none" stroke="rgba(255,255,255,0.45)" stroke-width="2"/>

      <!-- Top Sheen -->
      <path d="M 0 32 C 0 14 14 0 32 0 L 92 0 C 110 0 124 14 124 32 C 124 48 95 55 62 55 C 29 55 0 48 0 32 Z" fill="#ffffff" opacity="0.35"/>

      <!-- Mini Mortarboard + Pen inside icon -->
      <g transform="translate(62, 22)">
        <!-- Cap Top -->
        <polygon points="0,0 34,15 0,30 -34,15" fill="url(#emblemMini)" />
        <polygon points="-34,15 0,30 0,33 -34,18" fill="#93c5fd" />
        <polygon points="34,15 0,30 0,33 34,18" fill="#60a5fa" />
        <!-- Tassel Star -->
        <circle cx="33" cy="22" r="2.5" fill="#f59e0b" />
        <!-- Wings & Pen Spire -->
        <path d="M -26 50 C -12 42 0 42 0 42 C 0 42 12 42 26 50 C 20 58 10 62 0 62 C -10 62 -20 58 -26 50 Z" fill="url(#emblemMini)" opacity="0.9"/>
        <polygon points="0,34 3,54 0,60 -3,54" fill="#ffffff" />
      </g>

      <!-- Mini Monogram inside icon -->
      <text x="62" y="108" text-anchor="middle" font-family="'Segoe UI', Arial, sans-serif" font-size="11" font-weight="900" letter-spacing="1.5" fill="#ffffff">ĐBAQ</text>
    </g>

    <!-- B. Main Monogram Title: ĐBAQ - LMS (In Beautiful Glass Box) -->
    <g transform="translate(0, 195)">
      <!-- Pill Box -->
      <rect x="-190" y="-48" width="380" height="74" rx="37" fill="rgba(2, 6, 23, 0.55)" stroke="rgba(255, 255, 255, 0.28)" stroke-width="2" filter="url(#cardShadow)"/>
      <text x="0" y="3" text-anchor="middle" font-family="'Segoe UI', Arial, sans-serif" font-size="44" font-weight="900" letter-spacing="5" fill="url(#titleMetal)">
        ĐBAQ - LMS
      </text>
    </g>

    <!-- C. Full Educator Name -->
    <text x="0" y="292" font-family="'Segoe UI', Arial, sans-serif" font-size="34" font-weight="700" letter-spacing="0.5" fill="#ffffff">
      Gia sư Đào Bá Anh Quân
    </text>

    <!-- D. Subtitle Tagline -->
    <text x="0" y="338" font-family="'Segoe UI', Arial, sans-serif" font-size="20" font-weight="400" fill="#94a3b8">
      Hệ thống Học tập &amp; Luyện thi Trực tuyến
    </text>

    <!-- E. Minimalist Feature Pills (Centered row) -->
    <g transform="translate(0, 375)">
      <!-- Pill 1 -->
      <g transform="translate(-250, 0)">
        <rect x="0" y="0" width="150" height="38" rx="19" fill="rgba(255,255,255,0.06)" stroke="rgba(255,255,255,0.15)" stroke-width="1"/>
        <text x="75" y="24" text-anchor="middle" font-family="'Segoe UI', Arial, sans-serif" font-size="13" font-weight="600" fill="#cbd5e1">Toán &amp; Tự Nhiên</text>
      </g>
      <!-- Pill 2 -->
      <g transform="translate(-85, 0)">
        <rect x="0" y="0" width="170" height="38" rx="19" fill="rgba(255,255,255,0.06)" stroke="rgba(255,255,255,0.15)" stroke-width="1"/>
        <text x="85" y="24" text-anchor="middle" font-family="'Segoe UI', Arial, sans-serif" font-size="13" font-weight="600" fill="#cbd5e1">Chấm điểm tự động</text>
      </g>
      <!-- Pill 3 -->
      <g transform="translate(100, 0)">
        <rect x="0" y="0" width="150" height="38" rx="19" fill="rgba(255,255,255,0.06)" stroke="rgba(255,255,255,0.15)" stroke-width="1"/>
        <text x="75" y="24" text-anchor="middle" font-family="'Segoe UI', Arial, sans-serif" font-size="13" font-weight="600" fill="#cbd5e1">Đăng ký ca học</text>
      </g>
    </g>

    <!-- F. Minimalist URL Badge at bottom -->
    <g transform="translate(0, 445)">
      <rect x="-140" y="0" width="280" height="36" rx="18" fill="rgba(2, 132, 199, 0.15)" stroke="rgba(56, 189, 248, 0.35)" stroke-width="1.2"/>
      <text x="0" y="23" text-anchor="middle" font-family="'Segoe UI', Arial, sans-serif" font-size="14" font-weight="700" letter-spacing="1" fill="#38bdf8">
        dbaq-lms.vercel.app
      </text>
    </g>
  </g>
</svg>