<svg xmlns="http://www.w3.org/2000/svg" viewBox="0 0 1200 630" width="1200" height="630">
  <defs>
    <!-- Brighter, Elegant Oceanic to Royal Blue Gradient -->
    <linearGradient id="ogBgGrad" x1="0%" y1="0%" x2="100%" y2="100%">
      <stop offset="0%" stop-color="#0f2b5c"/>
      <stop offset="40%" stop-color="#09357a"/>
      <stop offset="75%" stop-color="#03449e"/>
      <stop offset="100%" stop-color="#071e4a"/>
    </linearGradient>

    <!-- Ultra Radiant Center Aura Glow (Brightening the whole scene) -->
    <radialGradient id="centerAura" cx="50%" cy="42%" r="65%">
      <stop offset="0%" stop-color="#38bdf8" stop-opacity="0.6"/>
      <stop offset="35%" stop-color="#0084ff" stop-opacity="0.4"/>
      <stop offset="70%" stop-color="#0052cc" stop-opacity="0.2"/>
      <stop offset="100%" stop-color="#000000" stop-opacity="0"/>
    </radialGradient>

    <radialGradient id="topGlowSoft" cx="50%" cy="10%" r="50%">
      <stop offset="0%" stop-color="#ffffff" stop-opacity="0.25"/>
      <stop offset="100%" stop-color="#ffffff" stop-opacity="0"/>
    </radialGradient>

    <!-- Mini Icon Background (Bright & Vibrant) -->
    <linearGradient id="miniIconBg" x1="0%" y1="0%" x2="100%" y2="100%">
      <stop offset="0%" stop-color="#00d2ff"/>
      <stop offset="30%" stop-color="#0084ff"/>
      <stop offset="70%" stop-color="#0066cc"/>
      <stop offset="100%" stop-color="#1e3a8a"/>
    </linearGradient>

    <!-- Pure Metallic Platinum for Title -->
    <linearGradient id="titleMetal" x1="0%" y1="0%" x2="100%" y2="0%">
      <stop offset="0%" stop-color="#ffffff"/>
      <stop offset="50%" stop-color="#f0f9ff"/>
      <stop offset="100%" stop-color="#bae6fd"/>
    </linearGradient>

    <linearGradient id="emblemMini" x1="0%" y1="0%" x2="100%" y2="100%">
      <stop offset="0%" stop-color="#ffffff"/>
      <stop offset="100%" stop-color="#bae6fd"/>
    </linearGradient>

    <linearGradient id="goldStar" x1="0%" y1="0%" x2="100%" y2="100%">
      <stop offset="0%" stop-color="#fef08a"/>
      <stop offset="100%" stop-color="#f59e0b"/>
    </linearGradient>

    <!-- Soft Depth Shadow -->
    <filter id="cardShadow" x="-20%" y="-20%" width="140%" height="140%">
      <feDropShadow dx="0" dy="14" stdDeviation="20" flood-color="#020617" flood-opacity="0.45"/>
    </filter>
    <filter id="iconGlow" x="-30%" y="-30%" width="160%" height="160%">
      <feDropShadow dx="0" dy="0" stdDeviation="24" flood-color="#38bdf8" flood-opacity="0.65"/>
    </filter>
  </defs>

  <!-- 1. Background -->
  <rect width="1200" height="630" fill="url(#ogBgGrad)"/>
  <rect width="1200" height="630" fill="url(#centerAura)"/>
  <rect width="1200" height="630" fill="url(#topGlowSoft)"/>

  <!-- 2. Outer Liquid Glass Rim -->
  <rect x="20" y="20" width="1160" height="590" rx="36" fill="none" stroke="rgba(255,255,255,0.22)" stroke-width="2"/>
  <rect x="24" y="24" width="1152" height="582" rx="32" fill="none" stroke="rgba(56,189,248,0.2)" stroke-width="1"/>

  <!-- 3. CENTERED PURE STACK (TOP TO BOTTOM) -->
  <g transform="translate(600, 52)" text-anchor="middle">
    
    <!-- LEVEL 1: LOGO (130x130) - Mortarboard + Pen Nib with Bright Ambient Glow -->
    <g transform="translate(-65, 0)" filter="url(#iconGlow)">
      <!-- Squircle Base -->
      <rect width="130" height="130" rx="34" fill="url(#miniIconBg)"/>
      <rect width="130" height="130" rx="34" fill="none" stroke="rgba(255,255,255,0.55)" stroke-width="2.5"/>

      <!-- Top Sheen -->
      <path d="M 0 34 C 0 15 15 0 34 0 L 96 0 C 115 0 130 15 130 34 C 130 52 100 58 65 58 C 30 58 0 52 0 34 Z" fill="#ffffff" opacity="0.45"/>

      <!-- Mini Mortarboard + Pen inside icon -->
      <g transform="translate(65, 23)">
        <!-- Cap Top -->
        <polygon points="0,0 36,16 0,32 -36,16" fill="url(#emblemMini)" />
        <polygon points="-36,16 0,32 0,35 -36,19" fill="#93c5fd" />
        <polygon points="36,16 0,32 0,35 36,19" fill="#60a5fa" />
        <!-- Tassel Star -->
        <circle cx="35" cy="24" r="2.8" fill="#f59e0b" />
        <!-- Wings & Pen Spire -->
        <path d="M -28 54 C -14 45 0 45 0 45 C 0 45 14 45 28 54 C 22 62 11 67 0 67 C -11 67 -22 62 -28 54 Z" fill="url(#emblemMini)" opacity="0.95"/>
        <polygon points="0,37 3.5,58 0,65 -3.5,58" fill="#ffffff" />
      </g>

      <!-- Mini Monogram label inside icon -->
      <text x="65" y="114" text-anchor="middle" font-family="'Segoe UI', Arial, sans-serif" font-size="12" font-weight="900" letter-spacing="2" fill="#ffffff">ĐBAQ</text>
    </g>

    <!-- LEVEL 2: BOX CHỨA ĐBAQ - LMS (Ngay dưới Logo) -->
    <g transform="translate(0, 182)">
      <!-- Liquid Glass Pill Box -->
      <rect x="-185" y="0" width="370" height="66" rx="33" fill="rgba(255, 255, 255, 0.14)" stroke="rgba(255, 255, 255, 0.4)" stroke-width="2" filter="url(#cardShadow)"/>
      <rect x="-182" y="3" width="364" height="28" rx="14" fill="#ffffff" opacity="0.12"/>
      <text x="0" y="47" text-anchor="middle" font-family="'Segoe UI', Arial, sans-serif" font-size="38" font-weight="900" letter-spacing="5" fill="url(#titleMetal)">
        ĐBAQ - LMS
      </text>
    </g>

    <!-- LEVEL 3: GIA SƯ ĐÀO BÁ ANH QUÂN -->
    <text x="0" y="318" font-family="'Segoe UI', Arial, sans-serif" font-size="40" font-weight="800" letter-spacing="0.5" fill="#ffffff" filter="url(#cardShadow)">
      Gia sư Đào Bá Anh Quân
    </text>

    <!-- LEVEL 4: HỆ THỐNG HỌC TẬP & LUYỆN THI TRỰC TUYẾN -->
    <text x="0" y="372" font-family="'Segoe UI', Arial, sans-serif" font-size="22" font-weight="500" letter-spacing="0.5" fill="#dbeafe">
      Hệ thống Học tập &amp; Luyện thi trực tuyến
    </text>

    <!-- LEVEL 5: BOX ĐƯỜNG DẪN LINK TỚI WEB (dbaq-lms.vercel.app) -->
    <g transform="translate(0, 432)">
      <!-- Luminous Domain Capsule Box -->
      <rect x="-165" y="0" width="330" height="48" rx="24" fill="rgba(2, 132, 199, 0.3)" stroke="rgba(56, 189, 248, 0.6)" stroke-width="1.8" filter="url(#cardShadow)"/>
      <text x="0" y="31" text-anchor="middle" font-family="'Segoe UI', Arial, sans-serif" font-size="16" font-weight="700" letter-spacing="1.5" fill="#e0f2fe">
        dbaq-lms.vercel.app
      </text>
    </g>
  </g>
</svg>